# This file uses centimeters as units for non-parametric coordinates.

v 0.028036 0.000000 -0.028037
v 0.000000 0.000000 -0.039650
v -0.028036 0.000000 -0.028037
v -0.039650 0.000000 0.000000
v -0.028036 0.000000 0.028036
v 0.000000 0.000000 0.039650
v 0.028036 0.000000 0.028037
v 0.039650 0.000000 0.000000
v 0.028036 1.616147 -0.028037
v 0.000000 1.616147 -0.039650
v -0.028036 1.616147 -0.028037
v -0.039650 1.616147 0.000000
v -0.028036 1.616147 0.028036
v 0.000000 1.616147 0.039650
v 0.028036 1.616147 0.028037
v 0.039650 1.616147 0.000000
v 0.160270 1.227996 -0.221467
v 0.189973 1.187600 -0.261986
v 0.176728 1.590025 -0.257715
v 0.209547 1.618176 -0.305097
v 0.077708 1.590025 -0.302673
v 0.091779 1.618176 -0.358568
v 0.061250 1.227996 -0.266425
v 0.072205 1.187600 -0.315456
v 0.011594 1.428623 0.006915
v 0.134042 1.394372 -0.262774
v 0.000621 1.455964 -0.001369
v 0.123069 1.421713 -0.271057
v -0.012837 1.428623 -0.004177
v 0.109611 1.394372 -0.273866
v -0.040452 1.137308 0.280747
v -0.048188 1.099581 0.332346
v -0.039384 1.500967 0.302175
v -0.046918 1.532094 0.357831
v 0.069230 1.500967 0.296763
v 0.082260 1.532094 0.351394
v 0.068162 1.137308 0.275334
v 0.080990 1.099581 0.325909
v -0.013439 1.323343 -0.000141
v 0.001368 1.304884 0.297008
v 0.000040 1.350807 0.000809
v 0.014848 1.332348 0.297958
v 0.013358 1.323343 -0.001477
v 0.028166 1.304884 0.295673
v 0.231353 1.162948 0.054374
v 0.273652 1.115062 0.064669
v 0.326685 1.513910 0.054374
v 0.387035 1.532474 0.064669
v 0.326685 1.513910 -0.054374
v 0.387035 1.532474 -0.064669
v 0.231353 1.162948 -0.054374
v 0.273652 1.115062 -0.064669
v -0.003600 1.404880 0.013415
v 0.283531 1.322860 0.013415
v 0.003600 1.431386 0.000000
v 0.290730 1.349365 0.000000
v -0.003600 1.404880 -0.013415
v 0.283531 1.322860 -0.013415
v -0.250730 1.172284 0.097774
v -0.296904 1.130862 0.115444
v -0.290202 1.533399 0.123368
v -0.343849 1.560351 0.145884
v -0.231037 1.533399 0.214613
v -0.273482 1.560351 0.254406
v -0.191565 1.172284 0.189019
v -0.226537 1.130862 0.223966
v -0.005808 1.378536 -0.012222
v -0.253695 1.338062 0.148512
v -0.001491 1.405809 0.000966
v -0.249377 1.365334 0.161701
v 0.008789 1.378536 0.010290
v -0.239097 1.338062 0.171024
v -0.146528 1.130827 -0.255692
v -0.173258 1.096337 -0.302916
v -0.146528 1.495151 -0.255692
v -0.173258 1.529641 -0.302916
v -0.229285 1.495151 -0.185141
v -0.271684 1.529641 -0.219007
v -0.229285 1.130827 -0.185141
v -0.271684 1.096337 -0.219007
v 0.010209 1.299232 -0.008703
v -0.183160 1.299232 -0.235528
v 0.000000 1.326746 0.000000
v -0.193369 1.326746 -0.226824
v -0.010209 1.299232 0.008703
v -0.203578 1.299232 -0.218121
v -0.008516 1.594574 0.008516
v 0.008516 1.594574 0.008516
v -0.008516 2.356783 0.008516
v 0.008516 2.356783 0.008516
v 0.000000 2.356783 -0.008516
v 0.000000 1.594574 -0.008516
v -0.036650 2.195655 -0.022224
v -0.022224 2.195655 0.036650
v -0.036650 2.365336 -0.022224
v -0.022224 2.365336 0.036650
v 0.029437 2.365336 -0.007213
v 0.029437 2.195655 -0.007213
vt 0.124299 0.329353
vt 0.271108 0.329353
vt 0.271108 0.476162
vt 0.124299 0.476162
vt 0.124299 0.329353
vt 0.271108 0.329353
vt 0.271108 0.476162
vt 0.124299 0.476162
vt 0.124299 0.329353
vt 0.271108 0.329353
vt 0.271108 0.476162
vt 0.124299 0.476162
vt 0.031423 0.033537
vt 0.148360 0.033537
vt 0.148360 0.150474
vt 0.031423 0.150474
vt 0.124299 0.329353
vt 0.271108 0.329353
vt 0.271108 0.476162
vt 0.124299 0.476162
vt 0.271108 0.329353
vt 0.271108 0.476162
vt 0.271108 0.329353
vt 0.271108 0.329353
vt 0.271108 0.476162
vt 0.271108 0.476162
vt 0.124299 0.329353
vt 0.124299 0.476162
vt 0.124299 0.329353
vt 0.271108 0.329353
vt 0.271108 0.476162
vt 0.124299 0.476162
vt 0.124299 0.329353
vt 0.271108 0.329353
vt 0.271108 0.476162
vt 0.124299 0.476162
vt 0.124299 0.329353
vt 0.271108 0.329353
vt 0.271108 0.476162
vt 0.124299 0.476162
vt 0.124299 0.329353
vt 0.271108 0.329353
vt 0.271108 0.476162
vt 0.124299 0.476162
vt 0.124299 0.329353
vt 0.271108 0.329353
vt 0.271108 0.476162
vt 0.124299 0.476162
vt 0.124299 0.329353
vt 0.271108 0.329353
vt 0.271108 0.476162
vt 0.124299 0.476162
vt 0.031423 0.033537
vt 0.148360 0.033537
vt 0.148360 0.150474
vt 0.031423 0.150474
vt 0.124299 0.329353
vt 0.271108 0.329353
vt 0.271108 0.476162
vt 0.124299 0.476162
vt 0.271108 0.329353
vt 0.271108 0.476162
vt 0.271108 0.476162
vt 0.031423 0.033537
vt 0.148360 0.033537
vt 0.148360 0.150474
vt 0.031423 0.150474
vt 0.124299 0.329353
vt 0.271108 0.329353
vt 0.271108 0.476162
vt 0.124299 0.476162
vt 0.271108 0.329353
vt 0.271108 0.476162
vt 0.124299 0.329353
vt 0.271108 0.329353
vt 0.271108 0.476162
vt 0.124299 0.476162
vt 0.124299 0.329353
vt 0.271108 0.329353
vt 0.271108 0.476162
vt 0.124299 0.476162
vt 0.271108 0.329353
vt 0.271108 0.329353
vt 0.271108 0.476162
vt 0.271108 0.476162
vt 0.124299 0.329353
vt 0.124299 0.476162
vt 0.124299 0.329353
vt 0.271108 0.329353
vt 0.271108 0.476162
vt 0.124299 0.476162
vt 0.124299 0.329353
vt 0.271108 0.329353
vt 0.031423 0.033537
vt 0.148360 0.033537
vt 0.148360 0.150474
vt 0.031423 0.150474
vt 0.124299 0.329353
vt 0.148360 0.150474
vt 0.148360 0.033537
vt 0.124299 0.476162
vt 0.031423 0.033537
vt 0.031423 0.150474
vt 0.124299 0.329353
vt 0.271108 0.329353
vt 0.124299 0.476162
vt 0.124299 0.329353
vt 0.124299 0.476162
vt 0.124299 0.329353
vt 0.124299 0.476162
vt 0.124299 0.329353
vt 0.124299 0.476162
vt 0.124299 0.329353
vt 0.124299 0.476162
vt 0.271108 0.476162
vt 0.124299 0.476162
vt 0.124299 0.329353
vt 0.124299 0.476162
vt 0.271108 0.329353
vt 0.271108 0.476162
vt 0.085400 0.761868
vt 0.200081 0.761868
vt 0.200081 0.876549
vt 0.085400 0.876549
vt 0.085400 0.761868
vt 0.200081 0.761868
vt 0.200081 0.876549
vt 0.085400 0.876549
vt 0.085400 0.761868
vt 0.200081 0.761868
vt 0.200081 0.876549
vt 0.085400 0.876549
vt 0.085400 0.761868
vt 0.200081 0.761868
vt 0.200081 0.876549
vt 0.085400 0.876549
vt 0.085400 0.761868
vt 0.200081 0.761868
vt 0.200081 0.876549
vt 0.085400 0.876549
vt 0.085400 0.761868
vt 0.200081 0.761868
vt 0.200081 0.876549
vt 0.085400 0.876549
vt 0.085400 0.761868
vt 0.200081 0.761868
vt 0.200081 0.876549
vt 0.085400 0.876549
vt 0.085400 0.761868
vt 0.200081 0.761868
vt 0.200081 0.876549
vt 0.085400 0.876549
vt 0.085400 0.761868
vt 0.200081 0.761868
vt 0.200081 0.876549
vt 0.085400 0.876549
vt 0.085400 0.761868
vt 0.200081 0.761868
vt 0.200081 0.876549
vt 0.085400 0.876549
vt 0.085400 0.761868
vt 0.200081 0.761868
vt 0.200081 0.876549
vt 0.085400 0.876549
vt 0.085400 0.761868
vt 0.200081 0.761868
vt 0.200081 0.876549
vt 0.085400 0.876549
vt 0.085400 0.761868
vt 0.200081 0.761868
vt 0.200081 0.876549
vt 0.085400 0.876549
vt 0.085400 0.761868
vt 0.200081 0.761868
vt 0.200081 0.876549
vt 0.085400 0.876549
vt 0.085400 0.761868
vt 0.200081 0.761868
vt 0.200081 0.876549
vt 0.085400 0.876549
vt 0.317886 0.493345
vt 0.317886 0.493345
vt 0.317886 0.561618
vt 0.317886 0.561618
vt 0.386159 0.493345
vt 0.386159 0.561618
vt 0.317886 0.493345
vt 0.317886 0.493345
vt 0.317886 0.561618
vt 0.317886 0.561618
vt 0.386159 0.493345
vt 0.386159 0.561618
vt 0.386159 0.493345
vt 0.317886 0.493345
vt 0.386159 0.561618
vt 0.317886 0.493345
vt 0.317886 0.493345
vt 0.317886 0.493345
vt 0.317886 0.493345
vt 0.386159 0.493345
vt 0.317886 0.493345
vt 0.317886 0.493345
vt 0.317886 0.561618
vt 0.317886 0.561618
vt 0.386159 0.493345
vt 0.386159 0.561618
vt 0.317886 0.493345
vt 0.317886 0.493345
vt 0.317886 0.561618
vt 0.317886 0.561618
vt 0.386159 0.493345
vt 0.386159 0.561618
vt 0.386159 0.493345
vt 0.386159 0.561618
vt 0.386159 0.493345
vt 0.386159 0.561618
vt 0.386159 0.493345
vt 0.386159 0.561618
vt 0.386159 0.493345
vt 0.386159 0.561618
vt 0.317886 0.493345
vt 0.386159 0.493345
vt 0.386159 0.561618
vt 0.386159 0.493345
vt 0.386159 0.561618
vt 0.386159 0.493345
vt 0.386159 0.561618
vt 0.386159 0.493345
vt 0.386159 0.561618
vt 0.386159 0.561618
vt 0.262923 0.670918
vt 0.331196 0.670918
vt 0.331196 0.739191
vt 0.262923 0.739191
vt 0.262923 0.670918
vt 0.331196 0.670918
vt 0.331196 0.739191
vt 0.262923 0.739191
vt 0.262923 0.670918
vt 0.331196 0.670918
vt 0.331196 0.739191
vt 0.262923 0.739191
vt 0.263861 0.079946
vt 0.296435 0.079946
vt 0.296435 0.112521
vt 0.263861 0.112521
vt 0.263861 0.079946
vt 0.296435 0.079946
vt 0.296435 0.112521
vt 0.263861 0.079946
vt 0.296435 0.079946
vt 0.296435 0.112521
vt 0.263861 0.079946
vt 0.296435 0.079946
vt 0.296435 0.112521
vt 0.263861 0.112521
vt 0.263861 0.079946
vt 0.296435 0.079946
vt 0.296435 0.112521
vt 0.263861 0.112521
vn 0.382685 0.000000 -0.923879
vn 0.382685 0.000000 -0.923879
vn 0.382685 0.000000 -0.923879
vn 0.382685 0.000000 -0.923879
vn -0.382684 0.000000 -0.923879
vn -0.382684 0.000000 -0.923880
vn -0.382684 0.000000 -0.923880
vn -0.382684 0.000000 -0.923879
vn -0.923878 0.000000 -0.382688
vn -0.923878 0.000000 -0.382688
vn -0.923878 0.000000 -0.382688
vn -0.923878 0.000000 -0.382688
vn -0.923878 0.000000 0.382688
vn -0.923878 0.000000 0.382688
vn -0.923878 0.000000 0.382688
vn -0.923878 0.000000 0.382688
vn -0.382685 0.000000 0.923879
vn -0.382685 0.000000 0.923879
vn -0.382684 0.000000 0.923879
vn -0.382684 0.000000 0.923879
vn 0.382684 0.000000 0.923879
vn 0.382684 0.000000 0.923879
vn 0.382684 0.000000 0.923879
vn 0.382684 0.000000 0.923879
vn 0.923878 0.000000 0.382687
vn 0.923878 0.000000 0.382687
vn 0.923878 0.000000 0.382687
vn 0.923878 0.000000 0.382687
vn 0.923878 0.000000 -0.382688
vn 0.923878 0.000000 -0.382688
vn 0.923878 0.000000 -0.382688
vn 0.923878 0.000000 -0.382688
vn 0.000000 1.000000 0.000000
vn 0.000000 1.000000 0.000000
vn 0.000000 1.000000 0.000000
vn 0.000000 1.000000 0.000000
vn 0.000000 1.000000 0.000000
vn 0.000000 1.000000 0.000000
vn 0.000000 1.000000 0.000000
vn 0.000000 1.000000 0.000000
vn 0.816073 0.020731 0.577577
vn 0.816072 0.020731 0.577578
vn 0.816073 0.020731 0.577577
vn 0.816072 0.020732 0.577578
vn -0.183813 0.895720 0.404843
vn -0.183813 0.895720 0.404844
vn -0.183813 0.895720 0.404844
vn -0.183813 0.895720 0.404844
vn -0.971955 0.020731 -0.234250
vn -0.971955 0.020731 -0.234250
vn -0.971955 0.020731 -0.234250
vn -0.971955 0.020731 -0.234250
vn -0.262420 -0.772708 0.577977
vn -0.262420 -0.772709 0.577976
vn -0.262421 -0.772709 0.577976
vn -0.262421 -0.772709 0.577975
vn 0.410940 -0.109303 -0.905086
vn 0.410940 -0.109303 -0.905086
vn 0.410940 -0.109303 -0.905086
vn 0.410940 -0.109303 -0.905086
vn -0.410939 0.109303 0.905087
vn -0.410939 0.109303 0.905087
vn -0.410939 0.109303 0.905087
vn -0.410940 0.109303 0.905087
vn 0.839208 0.435468 0.325726
vn 0.839208 0.435468 0.325726
vn 0.839209 0.435467 0.325725
vn 0.839209 0.435467 0.325725
vn -0.797572 0.435466 -0.417431
vn -0.797572 0.435466 -0.417431
vn -0.797572 0.435466 -0.417431
vn -0.797572 0.435467 -0.417431
vn -0.047491 -0.993380 0.104600
vn -0.047491 -0.993380 0.104595
vn -0.047491 -0.993380 0.104600
vn -0.047491 -0.993380 0.104595
vn -0.990049 0.011173 -0.140276
vn -0.990049 0.011173 -0.140277
vn -0.990049 0.011173 -0.140276
vn -0.990049 0.011173 -0.140277
vn -0.024442 0.871096 -0.490504
vn -0.024442 0.871097 -0.490503
vn -0.024442 0.871097 -0.490502
vn -0.024442 0.871098 -0.490501
vn 0.971199 0.011173 -0.238008
vn 0.971199 0.011173 -0.238008
vn 0.971199 0.011173 -0.238009
vn 0.971199 0.011173 -0.238009
vn -0.029542 -0.804777 -0.592842
vn -0.029542 -0.804777 -0.592842
vn -0.029542 -0.804777 -0.592842
vn -0.029542 -0.804777 -0.592842
vn 0.049682 -0.058895 0.997027
vn 0.049682 -0.058895 0.997027
vn 0.049682 -0.058895 0.997027
vn 0.049682 -0.058895 0.997027
vn -0.049683 0.058896 -0.997027
vn -0.049683 0.058896 -0.997027
vn -0.049683 0.058895 -0.997027
vn -0.049682 0.058895 -0.997027
vn -0.896370 0.437447 0.071842
vn -0.896370 0.437447 0.071842
vn -0.896370 0.437446 0.071841
vn -0.896370 0.437446 0.071841
vn 0.899072 0.437446 -0.017627
vn 0.899072 0.437446 -0.017627
vn 0.899072 0.437446 -0.017627
vn 0.899072 0.437446 -0.017627
vn -0.003082 -0.998081 -0.061849
vn -0.003082 -0.998081 -0.061847
vn -0.003082 -0.998081 -0.061849
vn -0.003082 -0.998081 -0.061847
vn -0.182776 0.049648 0.981900
vn -0.182775 0.049648 0.981900
vn -0.182776 0.049648 0.981900
vn -0.182775 0.049648 0.981900
vn -0.294013 0.955801 0.000000
vn -0.294014 0.955801 0.000000
vn -0.294014 0.955801 0.000000
vn -0.294014 0.955801 0.000000
vn -0.182775 0.049648 -0.981900
vn -0.182775 0.049648 -0.981900
vn -0.182776 0.049648 -0.981900
vn -0.182776 0.049648 -0.981900
vn -0.749476 -0.662032 0.000000
vn -0.749476 -0.662032 0.000000
vn -0.749476 -0.662032 0.000000
vn -0.749476 -0.662032 0.000000
vn 0.965032 -0.262134 0.000000
vn 0.965032 -0.262134 0.000000
vn 0.965032 -0.262134 0.000000
vn 0.965032 -0.262134 0.000000
vn -0.965032 0.262133 0.000000
vn -0.965032 0.262133 0.000000
vn -0.965032 0.262133 0.000000
vn -0.965032 0.262133 0.000000
vn 0.120556 0.422030 0.898531
vn 0.120556 0.422030 0.898531
vn 0.120556 0.422030 0.898531
vn 0.120556 0.422030 0.898531
vn 0.120556 0.422030 -0.898531
vn 0.120556 0.422030 -0.898531
vn 0.120556 0.422030 -0.898531
vn 0.120556 0.422030 -0.898531
vn -0.274670 -0.961538 0.000000
vn -0.274670 -0.961539 0.000000
vn -0.274670 -0.961538 0.000000
vn -0.274670 -0.961539 0.000000
vn -0.376395 0.024498 -0.926135
vn -0.376396 0.024498 -0.926135
vn -0.376395 0.024498 -0.926135
vn -0.376396 0.024498 -0.926135
vn 0.357313 0.904792 -0.231688
vn 0.357313 0.904792 -0.231689
vn 0.357313 0.904791 -0.231689
vn 0.357313 0.904791 -0.231689
vn 0.691971 0.024498 0.721510
vn 0.691971 0.024498 0.721510
vn 0.691971 0.024498 0.721509
vn 0.691971 0.024498 0.721509
vn 0.545843 -0.759463 -0.353936
vn 0.545843 -0.759463 -0.353936
vn 0.545843 -0.759464 -0.353935
vn 0.545843 -0.759464 -0.353935
vn -0.832018 -0.129180 0.539498
vn -0.832018 -0.129180 0.539498
vn -0.832018 -0.129180 0.539498
vn -0.832018 -0.129180 0.539498
vn 0.832018 0.129180 -0.539498
vn 0.832018 0.129180 -0.539498
vn 0.832019 0.129180 -0.539497
vn 0.832019 0.129180 -0.539497
vn -0.538910 0.434357 -0.721741
vn -0.538910 0.434357 -0.721741
vn -0.538912 0.434356 -0.721741
vn -0.538912 0.434355 -0.721741
vn 0.439056 0.434359 0.786487
vn 0.439054 0.434357 0.786489
vn 0.439056 0.434359 0.786488
vn 0.439054 0.434356 0.786490
vn 0.113884 -0.990746 -0.073841
vn 0.113884 -0.990746 -0.073843
vn 0.113884 -0.990746 -0.073841
vn 0.113884 -0.990746 -0.073843
vn 0.870259 0.000000 -0.492594
vn 0.870259 0.000000 -0.492595
vn 0.870259 0.000000 -0.492595
vn 0.870259 0.000000 -0.492595
vn 0.352552 0.839457 0.413545
vn 0.352551 0.839457 0.413545
vn 0.352551 0.839457 0.413545
vn 0.352551 0.839457 0.413545
vn -0.624090 0.000000 0.781352
vn -0.624090 0.000000 0.781352
vn -0.624091 0.000000 0.781352
vn -0.624091 0.000000 0.781352
vn 0.352553 -0.839455 0.413548
vn 0.352553 -0.839455 0.413548
vn 0.352553 -0.839455 0.413548
vn 0.352553 -0.839455 0.413547
vn -0.648756 0.000000 -0.760996
vn -0.648756 0.000000 -0.760997
vn -0.648756 0.000000 -0.760997
vn -0.648756 0.000000 -0.760997
vn 0.648756 0.000000 0.760997
vn 0.648756 0.000000 0.760996
vn 0.648757 0.000000 0.760996
vn 0.648757 0.000000 0.760996
vn 0.684022 0.438255 -0.583135
vn 0.684020 0.438254 -0.583138
vn 0.684022 0.438255 -0.583135
vn 0.684020 0.438254 -0.583138
vn -0.684019 0.438257 0.583138
vn -0.684022 0.438256 0.583134
vn -0.684019 0.438256 0.583137
vn -0.684022 0.438256 0.583134
vn 0.000000 -1.000000 -0.000003
vn 0.000000 -1.000000 0.000007
vn 0.000000 -1.000000 -0.000003
vn 0.000000 -1.000000 0.000007
vn 0.000000 0.000000 1.000000
vn 0.000000 0.000000 1.000000
vn 0.000000 0.000000 1.000000
vn 0.000000 0.000000 1.000000
vn 0.894429 0.000000 -0.447210
vn 0.894429 0.000000 -0.447211
vn 0.894429 0.000000 -0.447211
vn 0.894429 0.000000 -0.447211
vn -0.894426 0.000000 -0.447216
vn -0.894426 0.000000 -0.447216
vn -0.894426 0.000000 -0.447215
vn -0.894426 0.000000 -0.447215
vn -0.971265 0.000000 0.237999
vn -0.971265 0.000000 0.237999
vn -0.971265 0.000000 0.237999
vn -0.971265 0.000000 0.237999
vn 0.647235 0.000000 0.762291
vn 0.647235 0.000000 0.762291
vn 0.647235 0.000000 0.762291
vn 0.647235 0.000000 0.762291
vn 0.221491 0.000000 -0.975162
vn 0.221491 0.000000 -0.975162
vn 0.221491 0.000000 -0.975163
vn 0.221491 0.000000 -0.975163
vn 0.000000 -1.000000 0.000004
vn 0.000000 -1.000000 0.000004
vn 0.000000 -1.000000 0.000004
vn 0.000000 1.000000 0.000004
vn 0.000000 1.000000 0.000004
vn 0.000000 1.000000 0.000004
g antenna01
f 1/201/1 2/213/2 9/204/3
f 9/204/3 2/213/2 10/214/4
f 2/202/5 3/205/6 10/203/7
f 10/203/7 3/205/6 11/206/8
f 3/181/9 4/215/10 11/184/11
f 11/184/11 4/215/10 12/216/12
f 4/182/13 5/185/14 12/183/15
f 12/183/15 5/185/14 13/186/16
f 5/207/17 6/217/18 13/210/19
f 13/210/19 6/217/18 14/218/20
f 6/208/21 7/211/22 14/209/23
f 14/209/23 7/211/22 15/212/24
f 7/187/25 8/219/26 15/190/27
f 15/190/27 8/219/26 16/220/28
f 8/188/29 1/191/30 16/189/31
f 16/189/31 1/191/30 9/192/32
f 9/221/33 10/222/34 15/223/35
f 10/194/34 11/224/36 15/225/35
f 11/196/36 12/226/37 15/227/35
f 12/198/37 13/228/38 15/229/35
f 13/199/38 14/200/39 15/230/35
f 16/197/40 9/193/33 15/195/35
f 18/105/41 20/63/42 17/104/43
f 17/104/43 20/63/42 19/106/44
f 19/29/45 20/30/46 21/32/47
f 21/32/47 20/30/46 22/31/48
f 21/1/49 22/2/50 23/4/51
f 23/4/51 22/2/50 24/3/52
f 23/107/53 24/61/54 17/108/55
f 17/108/55 24/61/54 18/62/56
f 18/53/57 24/54/58 20/56/59
f 20/56/59 24/54/58 22/55/60
f 23/57/61 17/58/62 21/60/63
f 21/60/63 17/58/62 19/59/64
f 26/122/65 28/123/66 25/121/67
f 25/121/67 28/123/66 27/124/68
f 27/125/69 28/126/70 29/128/71
f 29/128/71 28/126/70 30/127/72
f 29/137/73 30/138/74 25/140/75
f 25/140/75 30/138/74 26/139/76
f 32/6/77 34/7/78 31/5/79
f 31/5/79 34/7/78 33/8/80
f 33/33/81 34/34/82 35/36/83
f 35/36/83 34/34/82 36/35/84
f 35/9/85 36/10/86 37/12/87
f 37/12/87 36/10/86 38/11/88
f 37/109/89 38/72/90 31/110/91
f 31/110/91 38/72/90 32/73/92
f 32/64/93 38/65/94 34/67/95
f 34/67/95 38/65/94 36/66/96
f 37/68/97 31/69/98 35/71/99
f 35/71/99 31/69/98 33/70/100
f 40/130/101 42/131/102 39/129/103
f 39/129/103 42/131/102 41/132/104
f 41/133/105 42/134/106 43/136/107
f 43/136/107 42/134/106 44/135/108
f 43/141/109 44/142/110 39/144/111
f 39/144/111 44/142/110 40/143/112
f 46/75/113 48/76/114 45/74/115
f 45/74/115 48/76/114 47/77/116
f 47/37/117 48/38/118 49/40/119
f 49/40/119 48/38/118 50/39/120
f 49/78/121 50/79/122 51/81/123
f 51/81/123 50/79/122 52/80/124
f 51/111/125 52/21/126 45/112/127
f 45/112/127 52/21/126 46/22/128
f 46/13/129 52/14/130 48/16/131
f 48/16/131 52/14/130 50/15/132
f 51/17/133 45/18/134 49/20/135
f 49/20/135 45/18/134 47/19/136
f 54/158/137 56/159/138 53/157/139
f 53/157/139 56/159/138 55/160/140
f 55/161/141 56/162/142 57/164/143
f 57/164/143 56/162/142 58/163/144
f 57/145/145 58/146/146 53/148/147
f 53/148/147 58/146/146 54/147/148
f 60/83/149 62/84/150 59/113/151
f 59/113/151 62/84/150 61/114/152
f 61/41/153 62/42/154 63/44/155
f 63/44/155 62/42/154 64/43/156
f 63/92/157 64/93/158 65/116/159
f 65/116/159 64/93/158 66/115/160
f 65/88/161 66/89/162 59/91/163
f 59/91/163 66/89/162 60/90/164
f 60/94/165 66/95/166 62/97/167
f 62/97/167 66/95/166 64/96/168
f 65/86/169 59/82/170 63/87/171
f 63/87/171 59/82/170 61/85/172
f 68/170/173 70/171/174 67/169/175
f 67/169/175 70/171/174 69/172/176
f 69/165/177 70/166/178 71/168/179
f 71/168/179 70/166/178 72/167/180
f 71/149/181 72/150/182 67/152/183
f 67/152/183 72/150/182 68/151/184
f 73/117/185 74/24/186 75/118/187
f 75/118/187 74/24/186 76/25/188
f 75/45/189 76/46/190 77/48/191
f 77/48/191 76/46/190 78/47/192
f 77/98/193 78/119/194 79/101/195
f 79/101/195 78/119/194 80/120/196
f 79/49/197 80/50/198 73/52/199
f 73/52/199 80/50/198 74/51/200
f 74/102/201 80/100/202 76/103/203
f 76/103/203 80/100/202 78/99/204
f 79/27/205 73/23/206 77/28/207
f 77/28/207 73/23/206 75/26/208
f 81/173/209 82/174/210 83/176/211
f 83/176/211 82/174/210 84/175/212
f 83/177/213 84/178/214 85/180/215
f 85/180/215 84/178/214 86/179/216
f 85/153/217 86/154/218 81/156/219
f 81/156/219 86/154/218 82/155/220
f 87/239/221 88/240/222 89/242/223
f 89/242/223 88/240/222 90/241/224
f 88/231/225 92/232/226 90/234/227
f 90/234/227 92/232/226 91/233/228
f 92/235/229 87/236/230 91/238/231
f 91/238/231 87/236/230 89/237/232
f 93/243/233 94/244/234 95/246/235
f 95/246/235 94/244/234 96/245/236
f 94/257/237 98/258/238 96/260/239
f 96/260/239 98/258/238 97/259/240
f 98/253/241 93/254/242 97/256/243
f 97/256/243 93/254/242 95/255/244
f 94/247/245 93/248/246 98/249/247
f 96/250/248 97/251/249 95/252/250
