# This file uses centimeters as units for non-parametric coordinates.

v -0.361807 0.000000 -0.004227
v -0.343256 0.000000 -0.004227
v -0.361807 0.509829 -0.004227
v -0.343256 0.509829 -0.004227
v -0.361807 0.509829 -0.024480
v -0.343256 0.509829 -0.024480
v -0.361807 0.000000 -0.024480
v -0.343256 0.000000 -0.024480
v 0.311511 0.000000 -0.004227
v 0.330062 0.000000 -0.004227
v 0.311511 0.509829 -0.004227
v 0.330062 0.509829 -0.004227
v 0.311511 0.509829 -0.024480
v 0.330062 0.509829 -0.024480
v 0.311511 0.000000 -0.024480
v 0.330062 0.000000 -0.024480
v -0.449486 0.204636 0.024480
v 0.449486 0.204636 0.024480
v -0.449486 0.714465 0.024480
v 0.449486 0.714465 0.024480
v -0.449486 0.714465 -0.004227
v 0.449486 0.714465 -0.004227
v -0.449486 0.204636 -0.004227
v 0.449486 0.204636 -0.004227
vt 0.870099 0.016058
vt 0.920523 0.016058
vt 0.920523 0.066482
vt 0.870099 0.066482
vt 0.870099 0.016058
vt 0.920523 0.016058
vt 0.920523 0.066482
vt 0.870099 0.066482
vt 0.870099 0.016058
vt 0.920523 0.016058
vt 0.920523 0.066482
vt 0.870099 0.066482
vt 0.870099 0.016058
vt 0.920523 0.016058
vt 0.920523 0.066482
vt 0.870099 0.066482
vt 0.016689 0.654063
vt 0.983311 0.654063
vt 0.983311 0.997037
vt 0.016689 0.997037
vt 0.870099 0.016058
vt 0.920523 0.016058
vt 0.920523 0.066482
vt 0.870099 0.066482
vt 0.944417 0.013385
vt 0.991271 0.013385
vt 0.991271 0.060239
vt 0.944417 0.060239
vt 0.944417 0.013385
vt 0.991271 0.013385
vt 0.991271 0.060239
vt 0.944417 0.060239
vt 0.944417 0.013385
vt 0.991271 0.013385
vt 0.991271 0.060239
vt 0.944417 0.060239
vt 0.944417 0.013385
vt 0.991271 0.013385
vt 0.991271 0.060239
vt 0.944417 0.060239
vt 0.944417 0.013385
vt 0.991271 0.013385
vt 0.991271 0.060239
vt 0.944417 0.060239
vt 0.952515 0.016827
vt 0.987828 0.016827
vt 0.987828 0.052141
vt 0.952515 0.052141
vt 0.952515 0.016827
vt 0.987828 0.016827
vt 0.987828 0.052141
vt 0.952515 0.052141
vt 0.952515 0.016827
vt 0.987828 0.016827
vt 0.987828 0.052141
vt 0.952515 0.052141
vt 0.952515 0.016827
vt 0.987828 0.016827
vt 0.987828 0.052141
vt 0.952515 0.052141
vt 0.952515 0.016827
vt 0.987828 0.016827
vt 0.987828 0.052141
vt 0.952515 0.052141
vn 0.000000 0.000000 1.000000
vn 0.000000 0.000000 1.000000
vn 0.000000 0.000000 1.000000
vn 0.000000 0.000000 1.000000
vn 0.000000 1.000000 0.000000
vn 0.000000 1.000000 0.000000
vn 0.000000 1.000000 0.000000
vn 0.000000 1.000000 0.000000
vn 0.000000 0.000000 -1.000000
vn 0.000000 0.000000 -1.000000
vn 0.000000 0.000000 -1.000000
vn 0.000000 0.000000 -1.000000
vn 1.000000 0.000000 0.000000
vn 1.000000 0.000000 0.000000
vn 1.000000 0.000000 0.000000
vn 1.000000 0.000000 0.000000
vn -1.000000 0.000000 0.000000
vn -1.000000 0.000000 0.000000
vn -1.000000 0.000000 0.000000
vn -1.000000 0.000000 0.000000
vn 0.000000 0.000000 1.000000
vn 0.000000 0.000000 1.000000
vn 0.000000 0.000000 1.000000
vn 0.000000 0.000000 1.000000
vn 0.000000 1.000000 0.000000
vn 0.000000 1.000000 0.000000
vn 0.000000 1.000000 0.000000
vn 0.000000 1.000000 0.000000
vn 0.000000 0.000000 -1.000000
vn 0.000000 0.000000 -1.000000
vn 0.000000 0.000000 -1.000000
vn 0.000000 0.000000 -1.000000
vn 1.000000 0.000000 0.000000
vn 1.000000 0.000000 0.000000
vn 1.000000 0.000000 0.000000
vn 1.000000 0.000000 0.000000
vn -1.000000 0.000000 0.000000
vn -1.000000 0.000000 0.000000
vn -1.000000 0.000000 0.000000
vn -1.000000 0.000000 0.000000
vn 0.000000 0.000000 1.000000
vn 0.000000 0.000000 1.000000
vn 0.000000 0.000000 1.000000
vn 0.000000 0.000000 1.000000
vn 0.000000 1.000000 0.000000
vn 0.000000 1.000000 0.000000
vn 0.000000 1.000000 0.000000
vn 0.000000 1.000000 0.000000
vn 0.000000 0.000000 -1.000000
vn 0.000000 0.000000 -1.000000
vn 0.000000 0.000000 -1.000000
vn 0.000000 0.000000 -1.000000
vn 0.000000 -1.000000 0.000000
vn 0.000000 -1.000000 0.000000
vn 0.000000 -1.000000 0.000000
vn 0.000000 -1.000000 0.000000
vn 1.000000 0.000000 0.000000
vn 1.000000 0.000000 0.000000
vn 1.000000 0.000000 0.000000
vn 1.000000 0.000000 0.000000
vn -1.000000 0.000000 0.000000
vn -1.000000 0.000000 0.000000
vn -1.000000 0.000000 0.000000
vn -1.000000 0.000000 0.000000
g billboard01
f 1/57/1 2/58/2 3/60/3
f 3/60/3 2/58/2 4/59/4
f 3/53/5 4/54/6 5/56/7
f 5/56/7 4/54/6 6/55/8
f 5/61/9 6/62/10 7/64/11
f 7/64/11 6/62/10 8/63/12
f 2/45/13 8/46/14 4/48/15
f 4/48/15 8/46/14 6/47/16
f 7/49/17 1/50/18 5/52/19
f 5/52/19 1/50/18 3/51/20
f 9/37/21 10/38/22 11/40/23
f 11/40/23 10/38/22 12/39/24
f 11/33/25 12/34/26 13/36/27
f 13/36/27 12/34/26 14/35/28
f 13/41/29 14/42/30 15/44/31
f 15/44/31 14/42/30 16/43/32
f 10/25/33 16/26/34 12/28/35
f 12/28/35 16/26/34 14/27/36
f 15/29/37 9/30/38 13/32/39
f 13/32/39 9/30/38 11/31/40
f 17/17/41 18/18/42 19/20/43
f 19/20/43 18/18/42 20/19/44
f 19/9/45 20/10/46 21/12/47
f 21/12/47 20/10/46 22/11/48
f 21/21/49 22/22/50 23/24/51
f 23/24/51 22/22/50 24/23/52
f 23/13/53 24/14/54 17/16/55
f 17/16/55 24/14/54 18/15/56
f 18/1/57 24/2/58 20/4/59
f 20/4/59 24/2/58 22/3/60
f 23/5/61 17/6/62 21/8/63
f 21/8/63 17/6/62 19/7/64
