# Blender v2.93.6 OBJ File: ''
# www.blender.org
o half
v -1.000000 -1.000000 1.000000
v -1.000000 1.000000 1.000000
v -1.000000 -1.000000 -1.000000
v -1.000000 1.000000 -1.000000
v 1.000000 -1.000000 -1.000000
v 1.000000 1.000000 -1.000000
vt 0.625000 0.000000
vt 0.375000 0.250000
vt 0.375000 0.000000
vt 0.625000 0.250000
vt 0.375000 0.500000
vt 0.625000 0.500000
vn -1.0000 0.0000 0.0000
vn 0.0000 0.0000 -1.0000
s off
f 2/1/1 3/2/1 1/3/1
f 4/4/2 5/5/2 3/2/2
f 2/1/1 4/4/1 3/2/1
f 4/4/2 6/6/2 5/5/2
