<svg width="100%" height="100%" viewBox="0 0 64 64" version="1.1" xmlns="http://www.w3.org/2000/svg" xmlns:xlink="http://www.w3.org/1999/xlink" xml:space="preserve" xmlns:serif="http://www.serif.com/" style="fill-rule:evenodd;clip-rule:evenodd;stroke-linejoin:round;stroke-miterlimit:2;"><path d="M14.245,0l-14.245,13.634l0,50.366l49.755,0l14.245,-13.634l-49.755,0l0,-50.366Zm10.525,30.117l6.805,-6.41l-6.805,0l0,-13.634l39.23,0l-11.482,10.989l-18.179,0l-0,10.073l19.136,0l-0,9.158l-28.705,-0l0,-10.176Z"/><path d="M64,50.366l0,-29.304l-29.661,0l-0,10.073l19.136,0l-0,9.158l-28.705,-0l0,-30.22l39.23,0l-0,-10.073l-49.755,0l0,50.366l49.755,0Z" style="fill:#f3a200;"/></svg>